<svg width="38" height="39" viewBox="0 0 38 39" fill="none" xmlns="http://www.w3.org/2000/svg">
<path d="M37.345 12.3658C37.2943 15.8927 34.4136 18.7446 30.8739 18.7446C27.9593 18.7446 25.4925 16.8208 24.6815 14.1714C24.5801 13.8255 24.4957 13.4711 24.4534 13.1083C24.4027 12.6864 24.2 12.2898 23.8789 12.0029C23.3214 11.4798 22.4006 10.7626 21.6149 10.7626C21.5051 10.7626 21.4037 10.7626 21.2939 10.7795C21.2094 10.7879 21.1249 10.8132 21.0489 10.8554C20.7785 10.9989 20.0605 11.3786 19.6127 11.4967C19.1565 11.6233 18.6834 11.6907 18.185 11.6907C17.3402 11.6907 16.5461 11.4967 15.8365 11.1507C15.4986 10.9904 15.186 10.7964 14.8987 10.5685C14.7129 10.5095 14.5101 10.4842 14.3074 10.4842C13.4119 10.4842 12.6431 11.0495 12.3474 11.8426C12.3474 11.927 12.3474 12.0114 12.3474 12.0957C12.3474 12.4079 12.3137 12.7201 12.2545 13.0154C12.1025 13.7833 11.7476 14.4836 11.2661 15.0658C10.7761 15.648 10.151 16.1036 9.43288 16.3821C9.06962 16.5255 8.67259 16.6267 8.26708 16.6774C8.07278 16.8208 7.90382 17.0149 7.794 17.2343C7.68417 17.4536 7.61657 17.7068 7.61657 17.9683C7.61657 18.2299 7.68417 18.4999 7.81088 18.7277C8.03898 18.9134 8.25018 19.1327 8.44448 19.3605C9.06119 20.1199 9.43288 21.0902 9.43288 22.1449C9.43288 22.7693 9.30617 23.3599 9.06963 23.9C8.84153 24.4315 8.51206 24.904 8.09811 25.309C8.09811 25.3681 8.08966 25.4272 8.08966 25.4862C8.08966 26.2372 8.5543 26.87 9.2048 27.1316C9.47513 27.14 9.73701 27.1822 9.99045 27.2497C11.4013 27.6294 12.4742 28.8275 12.6685 30.2957C12.6854 30.456 12.7023 30.6163 12.7023 30.7766C12.7023 30.9369 12.6938 31.1057 12.6685 31.266C12.7699 31.6373 12.9979 31.9579 13.2936 32.1857C13.5893 32.4135 13.9695 32.5485 14.375 32.5485C14.5186 32.5485 14.6538 32.5316 14.7889 32.4979C14.9241 32.3966 15.0593 32.2954 15.2029 32.211C15.3465 32.1266 15.507 32.0507 15.6591 31.9916C15.8449 31.9157 16.0477 31.8566 16.2504 31.8229C16.4532 31.7807 16.6644 31.7638 16.884 31.7638C18.0414 31.7638 19.0636 32.3544 19.6634 33.2404C19.7732 33.4007 19.8746 33.5779 19.9506 33.7635C20.2041 34.0588 20.5842 34.2445 21.0066 34.2445C21.3952 34.2445 21.7416 34.0842 21.9951 33.831C22.2992 32.5232 23.4735 31.536 24.8758 31.536C25.5601 31.536 26.1853 31.7638 26.6921 32.1604C27.2413 32.5823 27.6299 33.1982 27.7735 33.8985C27.8157 34.0926 27.8326 34.2867 27.8326 34.4892C27.8326 36.1176 26.5063 37.4423 24.8758 37.4423C23.8874 37.4423 23.0173 36.9614 22.485 36.2189C22.3499 36.1851 22.2147 36.1598 22.0795 36.1345C21.8599 36.1007 21.6402 36.0839 21.4121 36.0839C21.0404 36.0839 20.6687 36.1345 20.3223 36.2189C20.1365 36.2695 19.976 36.3961 19.8915 36.5733C19.883 36.5986 19.8746 36.6155 19.8577 36.6323C19.7648 36.8095 19.655 36.9783 19.5367 37.1386C18.92 37.9317 17.9654 38.4464 16.8756 38.4464C15.5492 38.4464 14.4088 37.6786 13.8596 36.5648C13.6738 36.1936 13.564 35.7801 13.5302 35.3498C13.3021 34.9364 12.9726 34.5904 12.5671 34.3542C12.1616 34.1095 11.697 33.9745 11.1901 33.9745C11.0211 33.9745 10.8522 33.9913 10.6917 34.0251C10.5649 34.0926 10.4298 34.1517 10.2946 34.2023C10.1594 34.2529 10.0158 34.2951 9.8722 34.3289C9.60186 34.3964 9.31462 34.4301 9.01894 34.4301C6.99987 34.4301 5.36097 32.7932 5.36097 30.7766C5.36097 30.6332 5.36097 30.4982 5.38632 30.3547C5.44545 29.8232 5.62286 29.3253 5.88475 28.8866C5.88475 28.8613 5.88475 28.8275 5.88475 28.7938C5.88475 27.8403 5.38631 27.005 4.63443 26.5325C4.3641 26.5072 4.10222 26.465 3.84878 26.3975C3.59534 26.33 3.35035 26.2372 3.11381 26.1275C1.61007 25.4187 0.5625 23.8915 0.5625 22.1196C0.5625 20.6177 1.31437 19.293 2.4633 18.4915C2.75898 18.289 3.08001 18.1118 3.42638 17.9852C3.72206 17.7405 3.96704 17.4368 4.12755 17.0824C4.29651 16.7364 4.38946 16.3399 4.38946 15.9264C4.38946 15.648 4.34721 15.378 4.27118 15.1333C4.11911 14.9561 3.97549 14.7705 3.84032 14.568C3.7136 14.3739 3.59534 14.163 3.50241 13.9436C3.24897 13.3698 3.10535 12.737 3.10535 12.0704C3.10535 9.52228 5.1751 7.46351 7.71794 7.46351C7.87846 7.46351 8.04742 7.47195 8.19949 7.48882C8.42758 7.51413 8.65569 7.55631 8.87534 7.60694C9.09499 7.666 9.30619 7.73351 9.50894 7.82632C9.56807 7.82632 9.6272 7.82632 9.68634 7.82632C11.0718 7.82632 12.2545 7.00788 12.7952 5.82661C12.8121 5.58192 12.8543 5.34566 12.905 5.10941C12.9557 4.87316 13.0233 4.64534 13.1078 4.42597C13.8596 2.36719 15.8365 0.907471 18.1597 0.907471C20.3055 0.907471 22.1556 2.15624 23.0173 3.97033C23.1862 4.32471 23.3214 4.71284 23.4143 5.10941C23.71 5.64942 24.1493 6.0966 24.6731 6.41723C25.1968 6.72942 25.8135 6.91507 26.4725 6.91507C26.7851 6.91507 27.0807 6.87287 27.368 6.79693C27.5623 6.67037 27.765 6.56068 27.9762 6.45943C28.1874 6.35818 28.3986 6.26535 28.6183 6.18098C29.311 5.92785 30.0544 5.79285 30.8401 5.79285C34.4474 5.79285 37.3619 8.74603 37.3197 12.3489L37.345 12.3658Z" fill="url(#paint0_linear_240_1347)"/>
<defs>
<linearGradient id="paint0_linear_240_1347" x1="19.2326" y1="-4.73729" x2="18.4404" y2="59.6502" gradientUnits="userSpaceOnUse">
<stop offset="0.15" stop-color="#48A4CB"/>
<stop offset="0.96" stop-color="#006F96"/>
</linearGradient>
</defs>
</svg>
