<svg width="38" height="38" viewBox="0 0 38 38" fill="none" xmlns="http://www.w3.org/2000/svg">
<path d="M37.7181 11.4607C37.6674 14.9877 34.7866 17.8396 31.2469 17.8396C28.3324 17.8396 25.8656 15.9158 25.0546 13.2664C24.9532 12.9204 24.8687 12.5661 24.8265 12.2032C24.7758 11.7814 24.573 11.3848 24.252 11.0979C23.6944 10.5748 22.7736 9.85759 21.9879 9.85759C21.8781 9.85759 21.7767 9.85758 21.6669 9.87446C21.5824 9.88289 21.4979 9.9082 21.4219 9.95039C21.1516 10.0938 20.4335 10.4735 19.9858 10.5917C19.5296 10.7182 19.0565 10.7857 18.5581 10.7857C17.7133 10.7857 16.9191 10.5917 16.2095 10.2457C15.8716 10.0854 15.559 9.89133 15.2718 9.66352C15.0859 9.60445 14.8832 9.57913 14.6804 9.57913C13.7849 9.57913 13.0162 10.1445 12.7205 10.9376C12.7205 11.022 12.7205 11.1063 12.7205 11.1907C12.7205 11.5029 12.6867 11.8151 12.6276 12.1104C12.4755 12.8782 12.1207 13.5786 11.6392 14.1607C11.1492 14.7429 10.524 15.1986 9.80593 15.477C9.44267 15.6205 9.04563 15.7217 8.64013 15.7723C8.44583 15.9158 8.27687 16.1098 8.16705 16.3292C8.05722 16.5486 7.98962 16.8017 7.98962 17.0633C7.98962 17.3249 8.05721 17.5949 8.18393 17.8227C8.41203 18.0083 8.62323 18.2277 8.81753 18.4555C9.43423 19.2149 9.80593 20.1852 9.80593 21.2399C9.80593 21.8643 9.67922 22.4549 9.44267 22.9949C9.21458 23.5265 8.88511 23.999 8.47116 24.404C8.47116 24.4631 8.4627 24.5221 8.4627 24.5812C8.4627 25.3321 8.92735 25.965 9.57784 26.2265C9.84818 26.235 10.1101 26.2772 10.3635 26.3447C11.7743 26.7244 12.8472 27.9225 13.0415 29.3906C13.0584 29.551 13.0753 29.7113 13.0753 29.8716C13.0753 30.0319 13.0669 30.2007 13.0415 30.361C13.1429 30.7322 13.371 31.0529 13.6667 31.2807C13.9623 31.5085 14.3425 31.6435 14.748 31.6435C14.8916 31.6435 15.0268 31.6266 15.162 31.5929C15.2971 31.4916 15.4323 31.3904 15.5759 31.306C15.7195 31.2216 15.8801 31.1457 16.0321 31.0866C16.218 31.0107 16.4207 30.9516 16.6235 30.9179C16.8262 30.8757 17.0374 30.8588 17.2571 30.8588C18.4144 30.8588 19.4366 31.4494 20.0365 32.3354C20.1463 32.4957 20.2477 32.6729 20.3237 32.8585C20.5771 33.1538 20.9573 33.3394 21.3797 33.3394C21.7683 33.3394 22.1147 33.1791 22.3681 32.926C22.6722 31.6182 23.8465 30.631 25.2489 30.631C25.9332 30.631 26.5583 30.8588 27.0652 31.2554C27.6143 31.6772 28.0029 32.2932 28.1465 32.9935C28.1888 33.1876 28.2057 33.3816 28.2057 33.5841C28.2057 35.2126 26.8793 36.5373 25.2489 36.5373C24.2605 36.5373 23.3903 36.0564 22.8581 35.3138C22.7229 35.2801 22.5877 35.2548 22.4526 35.2295C22.2329 35.1957 22.0133 35.1788 21.7852 35.1788C21.4135 35.1788 21.0418 35.2295 20.6954 35.3138C20.5095 35.3645 20.349 35.491 20.2645 35.6682C20.2561 35.6935 20.2477 35.7104 20.2308 35.7273C20.1378 35.9045 20.028 36.0732 19.9097 36.2335C19.293 37.0267 18.3384 37.5414 17.2486 37.5414C15.9223 37.5414 14.7818 36.7736 14.2327 35.6598C14.0468 35.2885 13.937 34.8751 13.9032 34.4448C13.6751 34.0313 13.3457 33.6854 12.9402 33.4491C12.5346 33.2044 12.07 33.0694 11.5631 33.0694C11.3942 33.0694 11.2252 33.0863 11.0647 33.1201C10.938 33.1876 10.8028 33.2466 10.6676 33.2973C10.5325 33.3479 10.3889 33.3901 10.2452 33.4238C9.97491 33.4913 9.68767 33.5251 9.39199 33.5251C7.37292 33.5251 5.73402 31.8882 5.73402 29.8716C5.73402 29.7282 5.73402 29.5932 5.75936 29.4497C5.8185 28.9181 5.9959 28.4203 6.25779 27.9816C6.25779 27.9562 6.25779 27.9225 6.25779 27.8888C6.25779 26.9353 5.75935 26.1 5.00748 25.6275C4.73715 25.6022 4.47526 25.56 4.22183 25.4925C3.96839 25.425 3.7234 25.3322 3.48685 25.2225C1.98311 24.5137 0.935547 22.9865 0.935547 21.2146C0.935547 19.7127 1.68742 18.388 2.83634 17.5864C3.13202 17.3839 3.45306 17.2067 3.79943 17.0802C4.09511 16.8355 4.34009 16.5317 4.5006 16.1774C4.66956 15.8314 4.76251 15.4348 4.76251 15.0214C4.76251 14.743 4.72026 14.473 4.64422 14.2283C4.49216 14.0511 4.34854 13.8654 4.21337 13.6629C4.08665 13.4689 3.96838 13.2579 3.87545 13.0386C3.62202 12.4648 3.4784 11.832 3.4784 11.1654C3.4784 8.61725 5.54815 6.55848 8.09099 6.55848C8.2515 6.55848 8.42047 6.56692 8.57253 6.58379C8.80063 6.60911 9.02874 6.65128 9.24839 6.70191C9.46803 6.76097 9.67923 6.82848 9.88198 6.92129C9.94112 6.92129 10.0002 6.92129 10.0594 6.92129C11.4449 6.92129 12.6276 6.10285 13.1682 4.92158C13.1851 4.67689 13.2274 4.44063 13.2781 4.20438C13.3288 3.96813 13.3963 3.74031 13.4808 3.52094C14.2327 1.46216 16.2095 0.00244141 18.5327 0.00244141C20.6785 0.00244141 22.5286 1.25121 23.3903 3.0653C23.5593 3.41968 23.6944 3.80781 23.7874 4.20438C24.083 4.74439 24.5223 5.19157 25.0461 5.5122C25.5699 5.82439 26.1866 6.01004 26.8455 6.01004C27.1581 6.01004 27.4538 5.96784 27.741 5.8919C27.9353 5.76534 28.1381 5.65565 28.3493 5.5544C28.5605 5.45315 28.7717 5.36032 28.9913 5.27595C29.6841 5.02282 30.4275 4.88782 31.2131 4.88782C34.8204 4.88782 37.735 7.841 37.6927 11.4439L37.7181 11.4607Z" fill="url(#paint0_linear_800_17622)"/>
<defs>
<linearGradient id="paint0_linear_800_17622" x1="19.6056" y1="-5.64232" x2="18.8134" y2="58.7451" gradientUnits="userSpaceOnUse">
<stop offset="0.15" stop-color="#48A4CB"/>
<stop offset="0.96" stop-color="#006F96"/>
</linearGradient>
</defs>
</svg>
