<svg width="111" height="38" viewBox="0 0 111 38" fill="none" xmlns="http://www.w3.org/2000/svg">
<path d="M36.7825 11.4583C36.7318 14.9852 33.8511 17.8371 30.3114 17.8371C27.3968 17.8371 24.93 15.9133 24.119 13.2639C24.0176 12.918 23.9332 12.5636 23.8909 12.2008C23.8402 11.7789 23.6375 11.3824 23.3164 11.0955C22.7589 10.5723 21.8381 9.85515 21.0524 9.85515C20.9426 9.85515 20.8412 9.85514 20.7314 9.87201C20.6469 9.88045 20.5624 9.90576 20.4864 9.94795C20.216 10.0914 19.498 10.4711 19.0502 10.5892C18.594 10.7158 18.1209 10.7833 17.6225 10.7833C16.7777 10.7833 15.9836 10.5892 15.274 10.2433C14.9361 10.083 14.6235 9.88889 14.3362 9.66107C14.1504 9.60201 13.9476 9.57669 13.7449 9.57669C12.8494 9.57669 12.0806 10.142 11.7849 10.9352C11.7849 11.0195 11.7849 11.1039 11.7849 11.1883C11.7849 11.5005 11.7512 11.8127 11.692 12.108C11.54 12.8758 11.1851 13.5761 10.7036 14.1583C10.2136 14.7405 9.58846 15.1962 8.87038 15.4746C8.50712 15.618 8.11009 15.7193 7.70458 15.7699C7.51028 15.9133 7.34132 16.1074 7.2315 16.3268C7.12167 16.5462 7.05407 16.7993 7.05407 17.0608C7.05407 17.3224 7.12167 17.5924 7.24839 17.8203C7.47648 18.0059 7.68768 18.2253 7.88198 18.4531C8.49869 19.2125 8.87038 20.1828 8.87038 21.2375C8.87038 21.8619 8.74367 22.4525 8.50713 22.9925C8.27903 23.5241 7.94956 23.9966 7.53561 24.4016C7.53561 24.4606 7.52716 24.5197 7.52716 24.5788C7.52716 25.3297 7.9918 25.9625 8.6423 26.2241C8.91263 26.2325 9.17451 26.2747 9.42795 26.3422C10.8388 26.7219 11.9117 27.9201 12.106 29.3882C12.1229 29.5485 12.1398 29.7088 12.1398 29.8692C12.1398 30.0295 12.1313 30.1982 12.106 30.3585C12.2074 30.7298 12.4354 31.0504 12.7311 31.2782C13.0268 31.506 13.407 31.641 13.8125 31.641C13.9561 31.641 14.0913 31.6242 14.2264 31.5904C14.3616 31.4892 14.4968 31.3879 14.6404 31.3035C14.784 31.2192 14.9445 31.1432 15.0966 31.0842C15.2824 31.0082 15.4852 30.9492 15.6879 30.9154C15.8907 30.8732 16.1019 30.8563 16.3215 30.8563C17.4789 30.8563 18.5011 31.447 19.1009 32.3329C19.2107 32.4932 19.3121 32.6704 19.3881 32.8561C19.6416 33.1514 20.0217 33.337 20.4441 33.337C20.8327 33.337 21.1791 33.1767 21.4326 32.9236C21.7367 31.6157 22.911 30.6285 24.3133 30.6285C24.9976 30.6285 25.6228 30.8563 26.1296 31.2529C26.6788 31.6748 27.0674 32.2907 27.211 32.9911C27.2532 33.1851 27.2701 33.3792 27.2701 33.5817C27.2701 35.2102 25.9438 36.5349 24.3133 36.5349C23.3249 36.5349 22.4548 36.0539 21.9225 35.3114C21.7874 35.2777 21.6522 35.2523 21.517 35.227C21.2974 35.1933 21.0777 35.1764 20.8496 35.1764C20.4779 35.1764 20.1062 35.227 19.7598 35.3114C19.574 35.362 19.4135 35.4886 19.329 35.6658C19.3205 35.6911 19.3121 35.708 19.2952 35.7249C19.2023 35.9021 19.0925 36.0708 18.9742 36.2311C18.3575 37.0242 17.4029 37.5389 16.3131 37.5389C14.9867 37.5389 13.8463 36.7711 13.2971 35.6573C13.1113 35.2861 13.0015 34.8726 12.9677 34.4423C12.7396 34.0289 12.4101 33.683 12.0046 33.4467C11.5991 33.202 11.1345 33.067 10.6276 33.067C10.4586 33.067 10.2897 33.0839 10.1292 33.1176C10.0024 33.1851 9.86726 33.2442 9.73209 33.2948C9.59693 33.3455 9.45331 33.3876 9.3097 33.4214C9.03936 33.4889 8.75212 33.5226 8.45644 33.5226C6.43737 33.5226 4.79847 31.8857 4.79847 29.8692C4.79847 29.7257 4.79847 29.5907 4.82382 29.4473C4.88295 28.9157 5.06036 28.4179 5.32225 27.9791C5.32225 27.9538 5.32225 27.9201 5.32225 27.8863C5.32225 26.9329 4.82381 26.0975 4.07193 25.625C3.8016 25.5997 3.53972 25.5575 3.28628 25.49C3.03284 25.4225 2.78785 25.3297 2.55131 25.22C1.04757 24.5113 0 22.9841 0 21.2122C0 19.7103 0.751871 18.3856 1.9008 17.584C2.19648 17.3815 2.51751 17.2043 2.86388 17.0777C3.15956 16.833 3.40454 16.5293 3.56505 16.1749C3.73401 15.829 3.82696 15.4324 3.82696 15.019C3.82696 14.7405 3.78471 14.4705 3.70868 14.2258C3.55661 14.0486 3.41299 13.863 3.27782 13.6605C3.1511 13.4664 3.03284 13.2555 2.93991 13.0361C2.68647 12.4624 2.54285 11.8295 2.54285 11.163C2.54285 8.61481 4.6126 6.55604 7.15544 6.55604C7.31596 6.55604 7.48492 6.56448 7.63699 6.58135C7.86508 6.60666 8.09319 6.64884 8.31284 6.69946C8.53249 6.75853 8.74369 6.82604 8.94644 6.91885C9.00557 6.91885 9.0647 6.91885 9.12384 6.91885C10.5093 6.91885 11.692 6.10041 12.2327 4.91914C12.2496 4.67445 12.2918 4.43819 12.3425 4.20194C12.3932 3.96569 12.4608 3.73787 12.5453 3.51849C13.2971 1.45972 15.274 0 17.5972 0C19.743 0 21.5931 1.24877 22.4548 3.06286C22.6237 3.41724 22.7589 3.80537 22.8518 4.20194C23.1475 4.74195 23.5868 5.18913 24.1106 5.50976C24.6343 5.82195 25.251 6.0076 25.91 6.0076C26.2226 6.0076 26.5182 5.9654 26.8055 5.88946C26.9998 5.7629 27.2025 5.65321 27.4137 5.55196C27.6249 5.45071 27.8361 5.35788 28.0558 5.27351C28.7485 5.02038 29.4919 4.88538 30.2776 4.88538C33.8849 4.88538 36.7994 7.83856 36.7572 11.4414L36.7825 11.4583Z" fill="url(#paint0_linear_101_952)"/>
<path d="M63.1492 18.8157C58.8745 18.8157 55.7065 15.7866 55.7065 11.1122C55.7065 6.43773 58.7394 3.44238 63.1492 3.44238C67.5591 3.44238 70.3976 6.3871 70.3976 10.7662C70.3976 11.2809 70.3723 11.7619 70.2878 12.2766H58.8999C59.1195 14.7319 60.8767 16.2254 63.1492 16.2254C65.0416 16.2254 66.0976 15.3057 66.6636 14.1413H69.9921C69.1557 16.7316 66.7987 18.8157 63.1492 18.8157V18.8157ZM58.9252 9.7959H67.1789C67.1282 7.50087 65.3119 6.04116 63.0141 6.04116C60.9274 6.04116 59.2547 7.45025 58.9252 9.7959Z" fill="url(#paint1_linear_101_952)"/>
<path d="M83.8464 10.4879C83.8464 7.76252 82.3596 6.35342 80.1124 6.35342C77.8652 6.35342 76.353 7.76252 76.353 10.4879V18.8073H73.2695V3.92341H76.353V5.6278C77.3499 4.41278 79.0057 3.67871 80.7882 3.67871C84.2772 3.67871 86.9046 5.86404 86.9046 10.0238V18.8073H83.8464V10.4879Z" fill="url(#paint2_linear_101_952)"/>
<path d="M92.2185 18.8155C91.1118 18.8155 90.2417 17.9549 90.2417 16.8411C90.2417 15.7273 91.1034 14.8667 92.2185 14.8667C93.3337 14.8667 94.17 15.7358 94.17 16.8411C94.17 17.9464 93.3083 18.8155 92.2185 18.8155Z" fill="#F1673A"/>
<path d="M103.691 18.8158C100.016 18.8158 97.186 16.8077 97.186 13.5592H100.413C100.548 15.0611 101.604 16.2761 103.691 16.2761C105.778 16.2761 106.994 15.137 106.994 13.5845C106.994 9.14631 97.2367 12.0235 97.2367 5.26502C97.2367 2.04185 99.8049 0.0336914 103.556 0.0336914C107.07 0.0336914 109.562 1.88154 109.824 5.02877H106.496C106.386 3.78844 105.305 2.64936 103.404 2.59873C101.655 2.54811 100.312 3.39187 100.312 5.16377C100.312 9.31508 110.044 6.72472 110.044 13.4326C110.044 16.1748 107.797 18.8243 103.699 18.8243L103.691 18.8158Z" fill="url(#paint3_linear_101_952)"/>
<path d="M53.3574 2.43842V0.0336914H45.5599H40.9727V2.70842V5.84722L43.4479 2.70842H49.6826L40.9727 16.4111V18.8158H48.7786H53.3574V16.1411V13.0023L50.8822 16.1411H44.6222L53.3574 2.43842Z" fill="url(#paint4_linear_101_952)"/>
<path opacity="0.61" d="M63.0228 34.1639C58.7481 34.1639 55.5801 31.1347 55.5801 26.4603C55.5801 21.7859 58.6129 18.7905 63.0228 18.7905C67.4326 18.7905 70.2711 21.7352 70.2711 26.1144C70.2711 26.6291 70.2458 27.11 70.1613 27.6247H58.7734C58.9931 30.0801 60.7502 31.5735 63.0228 31.5735C64.9151 31.5735 65.9711 30.6538 66.5371 29.4894H69.8656C69.0293 32.0798 66.6723 34.1639 63.0228 34.1639V34.1639ZM58.7988 25.144H67.0525C67.0018 22.849 65.1854 21.3893 62.8876 21.3893C60.8009 21.3893 59.1282 22.7984 58.7988 25.144Z" fill="url(#paint5_linear_101_952)"/>
<path opacity="0.61" d="M76.3028 27.1184C76.3028 29.8438 77.7897 31.2529 80.0368 31.2529C82.284 31.2529 83.7962 29.8438 83.7962 27.1184V18.799H86.8797V33.6829H83.7962V31.9785C82.7993 33.1935 81.1435 33.9276 79.361 33.9276C75.8719 33.9276 73.2446 31.7422 73.2446 27.5825V18.799H76.3028V27.1184Z" fill="url(#paint6_linear_101_952)"/>
<path opacity="0.61" d="M94.1363 20.7649C94.1363 21.8703 93.2746 22.7393 92.1848 22.7393C91.095 22.7393 90.208 21.8703 90.208 20.7649C90.208 19.6596 91.0697 18.7905 92.1848 18.7905C93.3 18.7905 94.1363 19.6512 94.1363 20.7649Z" fill="url(#paint7_linear_101_952)"/>
<path opacity="0.61" d="M103.497 18.7905C107.155 18.7905 109.968 20.7902 109.968 24.0218H106.758C106.623 22.5199 105.575 21.3134 103.497 21.3134C101.393 21.3134 100.211 22.444 100.211 23.9965C100.211 28.4094 109.917 25.549 109.917 32.2738C109.917 35.4801 107.366 37.4714 103.632 37.4714C100.135 37.4714 97.6593 35.632 97.3974 32.5101H100.709C100.81 33.742 101.892 34.8726 103.784 34.9232C105.516 34.9739 106.859 34.1385 106.859 32.3751C106.859 28.2491 97.1777 30.8226 97.1777 24.1484C97.1777 21.4146 99.4164 18.7905 103.488 18.7905H103.497Z" fill="url(#paint8_linear_101_952)"/>
<path opacity="0.61" d="M53.3242 21.1953V18.7905H40.9395V21.4652V24.5365L43.3556 21.4652H49.6493L40.9395 35.1679V37.5726H53.3242V37.5389V34.8979V31.7254L50.8236 34.8979H44.589L53.3242 21.1953Z" fill="url(#paint9_linear_101_952)"/>
<path d="M31.8326 25.608C32.6537 25.608 33.3194 24.9431 33.3194 24.123C33.3194 23.3028 32.6537 22.6379 31.8326 22.6379C31.0114 22.6379 30.3457 23.3028 30.3457 24.123C30.3457 24.9431 31.0114 25.608 31.8326 25.608Z" fill="url(#paint10_linear_101_952)"/>
<path d="M29.6023 31.1853C30.8341 31.1853 31.8326 30.188 31.8326 28.9577C31.8326 27.7275 30.8341 26.7302 29.6023 26.7302C28.3706 26.7302 27.3721 27.7275 27.3721 28.9577C27.3721 30.188 28.3706 31.1853 29.6023 31.1853Z" fill="url(#paint11_linear_101_952)"/>
<defs>
<linearGradient id="paint0_linear_101_952" x1="18.6701" y1="-5.64476" x2="17.8779" y2="58.7427" gradientUnits="userSpaceOnUse">
<stop offset="0.15" stop-color="#48A4CB"/>
<stop offset="0.96" stop-color="#006F96"/>
</linearGradient>
<linearGradient id="paint1_linear_101_952" x1="63.183" y1="-2.09269" x2="62.9639" y2="20.8576" gradientUnits="userSpaceOnUse">
<stop stop-color="#48A4CB"/>
<stop offset="1" stop-color="#006F96"/>
</linearGradient>
<linearGradient id="paint2_linear_101_952" x1="80.0871" y1="-1.99136" x2="80.0871" y2="19.3305" gradientUnits="userSpaceOnUse">
<stop stop-color="#48A4CB"/>
<stop offset="1" stop-color="#006F96"/>
</linearGradient>
<linearGradient id="paint3_linear_101_952" x1="103.716" y1="-3.45948" x2="103.573" y2="19.7946" gradientUnits="userSpaceOnUse">
<stop stop-color="#48A4CB"/>
<stop offset="1" stop-color="#006F96"/>
</linearGradient>
<linearGradient id="paint4_linear_101_952" x1="47.2664" y1="-0.902884" x2="47.0726" y2="19.204" gradientUnits="userSpaceOnUse">
<stop stop-color="#48A4CB"/>
<stop offset="1" stop-color="#006F96"/>
</linearGradient>
<linearGradient id="paint5_linear_101_952" x1="62.9298" y1="34.1723" x2="62.9298" y2="18.799" gradientUnits="userSpaceOnUse">
<stop stop-color="#48A4CB" stop-opacity="0"/>
<stop offset="1" stop-color="#006F96" stop-opacity="0.8"/>
</linearGradient>
<linearGradient id="paint6_linear_101_952" x1="80.0622" y1="33.9192" x2="80.0622" y2="18.7905" gradientUnits="userSpaceOnUse">
<stop stop-color="#48A4CB" stop-opacity="0"/>
<stop offset="1" stop-color="#006F96" stop-opacity="0.8"/>
</linearGradient>
<linearGradient id="paint7_linear_101_952" x1="92.1764" y1="22.7393" x2="92.1764" y2="18.7905" gradientUnits="userSpaceOnUse">
<stop stop-color="#48A4CB" stop-opacity="0"/>
<stop offset="1" stop-color="#006F96" stop-opacity="0.8"/>
</linearGradient>
<linearGradient id="paint8_linear_101_952" x1="103.573" y1="37.4714" x2="103.573" y2="18.7905" gradientUnits="userSpaceOnUse">
<stop stop-color="#48A4CB" stop-opacity="0"/>
<stop offset="1" stop-color="#006F96" stop-opacity="0.8"/>
</linearGradient>
<linearGradient id="paint9_linear_101_952" x1="47.098" y1="36.2817" x2="47.216" y2="9.53448" gradientUnits="userSpaceOnUse">
<stop stop-color="#48A4CB" stop-opacity="0"/>
<stop offset="1" stop-color="#006F96" stop-opacity="0.8"/>
</linearGradient>
<linearGradient id="paint10_linear_101_952" x1="30.3457" y1="24.123" x2="33.3278" y2="24.123" gradientUnits="userSpaceOnUse">
<stop stop-color="#48A4CB"/>
<stop offset="1" stop-color="#006F96"/>
</linearGradient>
<linearGradient id="paint11_linear_101_952" x1="27.3721" y1="28.9578" x2="31.8326" y2="28.9578" gradientUnits="userSpaceOnUse">
<stop stop-color="#48A4CB"/>
<stop offset="1" stop-color="#006F96"/>
</linearGradient>
</defs>
</svg>
