<svg width="344" height="253" viewBox="0 0 344 253" fill="none" xmlns="http://www.w3.org/2000/svg">
<g clip-path="url(#clip0_101_1072)">
<path d="M278.87 0H93.1303C88.64 0 85 3.31776 85 7.41041V158.59C85 162.682 88.64 166 93.1303 166H278.87C283.36 166 287 162.682 287 158.59V7.41041C287 3.31776 283.36 0 278.87 0Z" fill="white"/>
<path d="M173.529 89.0342H217.673C218.823 89.0342 219.761 89.9722 219.761 91.1223V96.3017C219.761 97.4517 218.823 98.3897 217.673 98.3897H173.529C172.379 98.3897 171.441 97.4517 171.441 96.3017V91.1223C171.441 89.9722 172.379 89.0342 173.529 89.0342Z" fill="#B8D6FF"/>
<g style="mix-blend-mode:hard-light">
<path d="M173.529 102.428H217.673C218.823 102.428 219.761 103.366 219.761 104.516V138.537C219.761 139.687 218.823 140.625 217.673 140.625H173.529C172.379 140.625 171.441 139.687 171.441 138.537V104.516C171.441 103.366 172.379 102.428 173.529 102.428Z" fill="#757575"/>
</g>
<path d="M278.529 22.2725H251.286V25.0049H278.529V22.2725Z" fill="#B8D6FF"/>
<path d="M282.599 30.7393H251.286V33.4717H282.599V30.7393Z" fill="#B8D6FF"/>
<path d="M267.436 39.1562H251.237V41.8887H267.436V39.1562Z" fill="#B8D6FF"/>
<path d="M276.196 47.5664H251.237V50.2988H276.196V47.5664Z" fill="#B8D6FF"/>
<path d="M169.867 166.039H86.2871V168.837H169.867V166.039Z" fill="white"/>
<path d="M148.358 152.988H86.2871V155.786H148.358V152.988Z" fill="url(#paint0_linear_101_1072)"/>
<path d="M153.358 159.514H86.2871V162.311H153.358V159.514Z" fill="url(#paint1_linear_101_1072)"/>
<path d="M129.81 166.039H86.2871V168.837H129.81V166.039Z" fill="url(#paint2_linear_101_1072)"/>
<path d="M244.483 55.1826H310.983C315.437 55.1826 319.058 58.8041 319.058 63.2576V166.079C319.058 170.532 315.437 174.154 310.983 174.154H244.483C240.03 174.154 236.408 170.532 236.408 166.079V63.2576C236.408 58.8041 240.03 55.1826 244.483 55.1826Z" fill="#B8D6FF"/>
<path d="M247.534 127.751H304.711C305.347 127.751 305.861 128.265 305.861 128.901V130.834C305.861 131.47 305.347 131.984 304.711 131.984H247.534C246.898 131.984 246.384 131.47 246.384 130.834V128.901C246.384 128.265 246.898 127.751 247.534 127.751Z" fill="white"/>
<path d="M247.542 137.075H287.575C288.211 137.075 288.725 137.589 288.725 138.225V140.15C288.725 140.786 288.211 141.3 287.575 141.3H247.55C246.914 141.3 246.4 140.786 246.4 140.15V138.225C246.4 137.589 246.914 137.075 247.55 137.075H247.542Z" fill="white"/>
<path d="M247.542 146.397H295.527C296.163 146.397 296.677 146.911 296.677 147.548V149.481C296.677 150.117 296.163 150.631 295.527 150.631H247.542C246.906 150.631 246.392 150.117 246.392 149.481V147.556C246.392 146.919 246.906 146.406 247.542 146.406V146.397Z" fill="white"/>
<path d="M270.902 157.85H284.573C286.857 157.85 288.716 159.709 288.716 161.993V175.663C288.716 177.947 286.857 179.807 284.573 179.807H270.902C268.618 179.807 266.759 177.947 266.759 175.663V161.993C266.759 159.709 268.618 157.85 270.902 157.85Z" fill="white"/>
<path d="M278.774 164.464H276.694V173.2H278.774V164.464Z" fill="#C5CCD1"/>
<path d="M282.102 169.872V167.792H273.366V169.872H282.102Z" fill="#C5CCD1"/>
<path d="M166.711 73.7715H43.6856C38.9736 73.7715 35.1538 77.5913 35.1538 82.3032V193.518C35.1538 198.23 38.9736 202.049 43.6856 202.049H166.711C171.423 202.049 175.242 198.23 175.242 193.518V82.3032C175.242 77.5913 171.423 73.7715 166.711 73.7715Z" fill="#E7F3FE"/>
<path d="M158.546 118.616L158.424 117.874L140.382 120.835L134.533 133.306L115.072 134.628L108.767 143.918L93.8894 143.551L93.873 144.301L109.158 144.685L115.488 135.345L135.023 134.024L140.887 121.512L158.546 118.616Z" fill="#4AA5E0"/>
<path d="M136.49 93.4365H155.936C157.167 93.4365 158.162 92.4414 158.162 91.2098C158.162 89.9863 157.167 88.9912 155.936 88.9912H136.49C135.267 88.9912 134.264 89.9863 134.264 91.2098C134.264 92.4414 135.259 93.4365 136.49 93.4365Z" fill="#1487E3"/>
<path d="M136.49 101.194H155.936C157.167 101.194 158.162 100.199 158.162 98.967C158.162 97.7353 157.167 96.7402 155.936 96.7402H136.49C135.267 96.7402 134.264 97.7353 134.264 98.967C134.264 100.199 135.259 101.194 136.49 101.194Z" fill="#4AA5E0"/>
<path d="M136.49 108.951H155.936C157.167 108.951 158.162 107.955 158.162 106.724C158.162 105.492 157.167 104.497 155.936 104.497H136.49C135.267 104.497 134.264 105.492 134.264 106.724C134.264 107.955 135.259 108.951 136.49 108.951Z" fill="#4AA5E0"/>
<path d="M49.2567 88.29H119.085C120.357 88.29 121.385 89.3259 121.385 90.5902V96.6587C121.385 97.9311 120.349 98.9588 119.085 98.9588H49.2567C47.9843 98.9588 46.9565 97.9229 46.9565 96.6587V90.5902C46.9565 89.3178 47.9924 88.29 49.2567 88.29Z" fill="#4AA5E0"/>
<path d="M119.085 103.608H49.2567C47.9864 103.608 46.9565 104.638 46.9565 105.909V111.985C46.9565 113.256 47.9864 114.285 49.2567 114.285H119.085C120.355 114.285 121.385 113.256 121.385 111.985V105.909C121.385 104.638 120.355 103.608 119.085 103.608Z" fill="#1487E3"/>
<path d="M156.107 149.064C151.189 142.343 142.633 139.864 135.137 142.335C133.318 142.93 131.564 143.828 129.941 145.019C125.015 148.632 122.364 154.195 122.274 159.863C122.217 163.795 123.391 167.775 125.887 171.193C126.132 171.535 126.393 171.862 126.662 172.18C127.869 173.624 129.264 174.839 130.773 175.826C137.111 179.953 145.602 179.977 152.062 175.247C160.406 169.137 162.217 157.416 156.107 149.072V149.064ZM149.288 171.454C144.443 175.002 138.081 174.986 133.326 171.894C132.192 171.152 131.156 170.247 130.243 169.162C130.039 168.925 129.851 168.681 129.664 168.42C127.788 165.859 126.907 162.873 126.956 159.929C127.021 155.679 129.003 151.503 132.698 148.795C133.922 147.906 135.235 147.237 136.597 146.789C142.225 144.929 148.636 146.789 152.323 151.829C156.907 158.085 155.544 166.87 149.288 171.454Z" fill="#4AA5E0"/>
<path d="M126.956 159.929L122.266 159.863C122.347 154.195 124.998 148.624 129.933 145.018C131.564 143.828 133.318 142.939 135.128 142.335L136.597 146.788C135.235 147.237 133.921 147.906 132.698 148.795C129.003 151.503 127.013 155.671 126.956 159.929Z" fill="#1A598C"/>
<path d="M130.251 169.163L126.662 172.181C126.393 171.863 126.14 171.536 125.887 171.194C123.383 167.776 122.208 163.796 122.274 159.864L126.964 159.93C126.923 162.874 127.796 165.859 129.672 168.42C129.859 168.673 130.055 168.926 130.251 169.163Z" fill="#2273B5"/>
<path d="M130.773 175.817C129.264 174.83 127.877 173.615 126.662 172.171L130.251 169.153C131.156 170.238 132.2 171.152 133.334 171.886L130.773 175.809V175.817Z" fill="#3788CC"/>
<path d="M3.7837 121.111C7.5194 119.325 11.2388 131.226 11.2388 131.226C17.5927 139.619 26.4752 128.452 25.6025 141.005C24.0853 162.963 50.8796 147.914 38.5143 170.842C26.1489 193.77 49.4277 183.803 41.7443 202.294C34.0608 220.784 44.0199 242.832 32.4621 233.77C32.4621 233.77 22.2827 211.453 11.7853 204.545C1.2878 197.636 18.074 189.447 14.7869 180.067C10.0153 166.445 -1.47727 166.976 6.80978 152.335C15.0968 137.694 -8.93235 127.196 3.76739 121.12L3.7837 121.111Z" fill="url(#paint3_linear_101_1072)"/>
<path d="M36.1324 225.36C31.1243 221.836 25.2597 197.277 24.909 182.652C24.7295 175.157 22.5109 172.041 20.5615 169.284C18.6937 166.649 17.0787 164.382 18.0167 159.162C19.8111 149.186 15.0885 144.879 15.0396 144.839L15.586 144.219C15.7981 144.398 20.7165 148.844 18.8323 159.317C17.9514 164.194 19.4033 166.233 21.2304 168.819C23.1553 171.527 25.5451 174.904 25.7327 182.644C26.1079 198.346 32.1029 221.526 36.6054 224.691L36.1324 225.368V225.36Z" fill="white"/>
<path d="M38.0083 227.179C37.364 227.179 36.6625 227.106 35.8876 226.951C33.9545 226.559 32.6903 225.54 32.1275 223.925C30.7735 220.059 33.9056 213.786 36.4423 210.76C36.4831 210.711 40.7326 205.516 40.284 198.313C40.2106 197.106 40.0801 195.989 39.9741 195.002C39.6559 192.155 39.4276 190.092 40.651 188.713C41.7277 187.498 43.8158 186.976 47.6167 186.959C54.2888 186.927 56.9234 184.17 59.0441 181.951C59.9413 181.005 60.7977 180.116 61.8254 179.553C65.1452 177.743 68.6688 177.473 70.194 178.917C70.92 179.602 71.5317 180.948 70.3327 183.46C69.2397 185.752 67.8123 187.204 66.6704 188.371C65.1288 189.945 64.1174 190.981 64.6476 193.044C64.77 193.525 64.9168 194.023 65.0554 194.512C66.0832 198.028 67.2495 202.016 61.23 204.716C59.9494 205.287 58.7912 205.744 57.7635 206.152C53.5629 207.799 51.0262 208.794 48.1632 214.838C47.6086 216.005 47.1192 217.114 46.6461 218.191C44.3867 223.305 42.682 227.171 38.0165 227.171L38.0083 227.179ZM62.2169 180.279C61.2953 180.785 60.5285 181.584 59.6395 182.522C57.4127 184.855 54.6395 187.759 47.6167 187.791C44.1176 187.808 42.16 188.264 41.2709 189.268C40.2922 190.369 40.5042 192.269 40.7979 194.912C40.9121 195.907 41.0344 197.033 41.116 198.264C41.589 205.809 37.2661 211.078 37.0866 211.299C34.5744 214.292 31.7278 220.254 32.9105 223.656C33.3754 224.977 34.4358 225.817 36.0589 226.143C41.7277 227.285 43.2938 223.745 45.8794 217.873C46.3525 216.796 46.85 215.679 47.4047 214.504C50.4063 208.166 53.2121 207.065 57.4535 205.401C58.4731 205.002 59.6232 204.553 60.8874 203.982C66.2463 201.576 65.2838 198.264 64.2561 194.765C64.1093 194.268 63.9624 193.762 63.8401 193.273C63.1957 190.752 64.4682 189.455 66.075 187.808C67.2332 186.625 68.5464 185.287 69.5823 183.118C70.1288 181.984 70.5774 180.434 69.6231 179.537C68.367 178.346 65.1859 178.681 62.2169 180.296V180.279Z" fill="url(#paint4_linear_101_1072)"/>
<path d="M35.9771 231.959L35.1533 231.919C35.1941 231.144 36.2381 212.816 43.5953 207.449C51.6703 201.568 54.2152 195.239 55.4223 190.997C56.8497 185.997 64.1172 184.66 64.4272 184.603L64.574 185.418C64.5006 185.435 57.5023 186.723 56.2217 191.226C54.9737 195.589 52.3636 202.082 44.0847 208.118C37.0456 213.248 35.9934 231.772 35.9771 231.959Z" fill="url(#paint5_linear_101_1072)"/>
<path d="M52.8042 139.603C47.5759 137.808 48.6607 147.89 46.4503 155.345C44.2398 162.8 21.8664 158.599 31.2546 177.278C40.6428 195.956 19.3787 183.526 25.7326 199.822C32.0866 216.119 26.2873 233.55 33.1877 229.121C40.0963 224.684 37.0702 204.162 44.248 201.723C51.4339 199.284 52.6003 196.437 45.4878 189.814C38.3753 183.183 64.1173 176.601 57.7715 163.216C51.4176 149.831 58.8401 141.683 52.7961 139.611L52.8042 139.603Z" fill="url(#paint6_linear_101_1072)"/>
<path d="M36.3931 228.338C35.7324 225.548 30.1207 200.997 35.3572 198.028C39.9738 195.41 39.8596 185.238 39.1419 175.63C38.5057 167.123 49.4273 163.15 49.8922 162.987L50.1695 163.77C50.0635 163.811 39.3784 167.702 39.9657 175.573C40.7079 185.442 40.7813 195.907 35.7651 198.754C31.7847 201.005 35.447 220.744 37.2006 228.15L36.3931 228.338Z" fill="white"/>
<path d="M48.2855 219.594L40.8141 247.921H24.1258L16.6626 219.594H48.2855Z" fill="url(#paint7_linear_101_1072)"/>
<path d="M48.2855 219.594C48.2855 219.594 31.8501 222.677 31.8501 247.921H24.134L16.6626 219.594H48.2855Z" fill="url(#paint8_linear_101_1072)"/>
<path d="M94.9825 182.792H71.459V184.187H94.9825V182.792Z" fill="#E2D2CA"/>
<path d="M74.6157 251.332H76.6793V187.825H74.6157V251.332Z" fill="#706865"/>
<path d="M107.658 182.401H91.3037V184.4H107.658V182.401Z" fill="#CCBDB7"/>
<path d="M102.568 165.378H96.3774V184.187H102.568V165.378Z" fill="#998E89"/>
<path d="M153.62 184.212H63.0171V187.825H153.62V184.212Z" fill="#B59074"/>
<path d="M45.6273 162.361C45.6273 162.361 44.6404 176.259 47.3484 177.923C49.0531 178.967 55.8312 182.483 55.6272 183.135C55.4233 183.796 51.8018 189 51.8018 189C51.8018 189 38.7758 180.419 38.3517 177.719C37.9439 175.077 38.9961 157.369 40.7823 156.553C42.12 155.941 42.8296 156.447 44.518 157.703C46.8916 159.465 45.6192 162.361 45.6192 162.361H45.6273Z" fill="#FFB555"/>
<path d="M61.655 242.662C61.655 242.662 61.2472 245.476 61.1982 245.892C61.1493 246.308 56.6958 245.648 56.6958 245.648L56.3369 242.303C56.3369 242.303 61.1003 242.271 61.6631 242.662H61.655Z" fill="#424773"/>
<path d="M61.2468 245.541C61.2468 245.541 62.6579 247.238 64.02 247.972C65.3822 248.714 67.5273 249 68.3348 249.767C68.9139 250.321 70.4555 252.695 64.7867 252.646C59.1179 252.597 56.3855 252.98 55.7737 252.067C55.1702 251.153 56.6547 245.346 56.6547 245.346C56.6547 245.346 58.0005 245.827 61.2386 245.533L61.2468 245.541Z" fill="#292C47"/>
<path d="M90.2028 242.686C90.2028 242.686 89.795 245.5 89.7461 245.924C89.6971 246.348 85.2437 245.671 85.2437 245.671L84.8848 242.327C84.8848 242.327 89.6482 242.294 90.211 242.686H90.2028Z" fill="#424773"/>
<path d="M89.7946 245.566C89.7946 245.566 91.2057 247.262 92.5679 247.996C93.93 248.738 98.9544 249.342 99.7619 250.109C100.341 250.663 101.312 252.882 93.3346 252.678C87.6658 252.531 84.9333 253.012 84.3216 252.099C83.718 251.185 85.2025 245.378 85.2025 245.378C85.2025 245.378 86.4668 245.892 89.7865 245.566H89.7946Z" fill="#292C47"/>
<path d="M47.2831 194.09C47.2831 194.09 63.482 196.83 67.1443 197.401C70.8066 197.98 90.6433 202.915 93.1229 204.416C95.0968 205.615 92.087 234.367 91.3855 245.337H83.5716L83.0088 212.425C73.6287 212.662 66.9404 210.231 60.1134 211.267C53.2863 212.303 47.5931 213.779 43.2538 207.956C43.2538 207.956 43.0906 195.346 47.2913 194.073L47.2831 194.09Z" fill="#292C47"/>
<path d="M63.2534 245.377L55.6351 244.904L54.8929 212.441C50.8554 212.539 49.4688 212.286 46.2062 211.895L40.0562 197.604C45.4476 198.681 62.7069 203.037 65.007 204.432C66.9809 205.631 63.9467 234.407 63.2452 245.386L63.2534 245.377Z" fill="#292C47"/>
<path d="M54.746 133.372C54.746 133.372 60.684 131.733 62.9515 136.341C65.219 140.95 64.1913 149.693 61.1979 150.509C58.2044 151.333 53.8978 150.387 52.658 147.516C51.4182 144.645 50.4231 140.566 50.7249 137.932C51.0185 135.289 53.1718 134 54.7542 133.372H54.746Z" fill="#EEA886"/>
<path d="M59.6401 149.596C59.6401 149.596 59.5749 153.103 59.9582 153.845C60.3416 154.596 51.6875 154.408 51.6875 154.408C51.6875 154.408 53.0496 150.199 52.2748 146.61C51.5081 143.062 59.632 149.596 59.632 149.596H59.6401Z" fill="#EEA886"/>
<path d="M51.8179 145.281C51.8179 145.281 52.2829 146.219 54.5177 146.072C56.7608 145.917 59.7135 143.217 60.6678 142.972C61.6221 142.728 61.6792 142.189 61.6792 142.189L62.1849 143.087L63.1555 143.233C63.1555 143.233 62.4949 140.525 63.9386 139.571C65.3823 138.617 63.286 130.933 55.9859 132.785C55.9859 132.785 50.4069 133.804 50.3334 136.92C50.26 140.036 50.7413 143.633 51.8261 145.281H51.8179Z" fill="#3A3F47"/>
<path d="M60.4151 153.755C60.4151 153.755 60.3906 152.328 59.7462 152.189C59.1019 152.05 52.9437 151.202 52.1443 151.52L51.8018 153.404C51.8018 153.404 53.3352 154.342 60.4151 153.755Z" fill="#E2D2CA"/>
<path d="M62.2013 141.553C62.0381 140.387 60.7005 139.041 59.9419 140.86C59.1833 142.687 60.4558 145.338 61.3122 145.199C62.1686 145.061 62.4297 143.144 62.2013 141.553Z" fill="#EEA886"/>
<path d="M86.2059 170.632C86.2059 170.632 86.2059 170.632 86.1978 170.632C86.2385 170.648 86.2467 170.656 86.2059 170.632Z" fill="#323657"/>
<path d="M53.009 134.212C53.009 134.212 45.766 133.869 51.7448 145.174L53.009 134.212Z" fill="#3A3F47"/>
<path d="M36.8833 249.227L37.4216 250.736L60.1784 243.689L59.0854 240.622L36.8833 249.227Z" fill="#918783"/>
<path d="M60.9533 217.865H58.3677V242.604H60.9533V217.865Z" fill="#918783"/>
<path d="M67.2908 216.553H52.0381V218.013H67.2908V216.553Z" fill="#5E5854"/>
<path d="M82.6499 249.228L82.1116 250.737L59.3467 243.689L60.3499 240.427L82.6499 249.228Z" fill="#918783"/>
<path d="M66.6142 250.582V252.343L59.3467 243.689L60.3499 240.427L66.6142 250.582Z" fill="#918783"/>
<path d="M82.6499 253.462C83.8256 253.462 84.7787 252.509 84.7787 251.333C84.7787 250.157 83.8256 249.204 82.6499 249.204C81.4741 249.204 80.521 250.157 80.521 251.333C80.521 252.509 81.4741 253.462 82.6499 253.462Z" fill="#BFB2AC"/>
<path d="M66.7934 251.333C66.7934 252.508 65.839 253.462 64.6645 253.462C63.49 253.462 62.5356 252.508 62.5356 251.333C62.5356 250.158 63.49 249.204 64.6645 249.204C65.839 249.204 66.7934 250.158 66.7934 251.333Z" fill="#BFB2AC"/>
<path d="M39.0038 251.333C39.0038 252.508 38.0495 253.462 36.875 253.462C35.7004 253.462 34.7461 252.508 34.7461 251.333C34.7461 250.158 35.7004 249.204 36.875 249.204C38.0495 249.204 39.0038 250.158 39.0038 251.333Z" fill="#BFB2AC"/>
<path d="M44.4201 211.03H75.1132C76.614 211.03 77.8374 212.254 77.8374 213.755V213.828C77.8374 215.329 76.614 216.552 75.1132 216.552H44.4201C42.9193 216.552 41.6958 215.329 41.6958 213.828V213.755C41.6958 212.254 42.9193 211.03 44.4201 211.03Z" fill="#E2D2CA"/>
<path d="M142.029 187.825H139.966V251.332H142.029V187.825Z" fill="#706865"/>
<path d="M123.49 136.725H75.4559C73.9558 136.725 72.7397 137.941 72.7397 139.441V171.724C72.7397 173.224 73.9558 174.44 75.4559 174.44H123.49C124.99 174.44 126.206 173.224 126.206 171.724V139.441C126.206 137.941 124.99 136.725 123.49 136.725Z" fill="#B8ABA5"/>
<path d="M124.118 138.764H74.8359V168.535H124.118V138.764Z" fill="#F5F7FF"/>
<path d="M121.932 171.341C121.932 172.189 121.043 172.874 119.942 172.874C118.84 172.874 117.959 172.189 117.959 171.341C117.959 170.493 118.849 169.808 119.942 169.808C121.034 169.808 121.932 170.493 121.932 171.341Z" fill="#918681"/>
<path d="M110.545 184.261V183.592C110.545 183.592 109.599 179.416 102.927 179.416C96.2549 179.416 96.3854 184.261 96.3854 184.261H110.545Z" fill="#998E89"/>
<path d="M96.304 180.036C96.304 180.036 97.7559 179.921 98.286 179.603C98.8162 179.285 101.997 177.148 102.74 177.483C103.49 177.825 108.457 179.351 108.278 180.076C108.107 180.802 107.65 180.729 107.299 180.607C106.948 180.476 103.343 179.718 103.025 179.848C103.025 179.848 106.565 181.145 106.581 182.083C106.598 183.029 105.839 183.257 105.505 183.616C105.17 183.975 104.762 184.856 103.849 184.93C102.935 184.995 98.4818 183.445 97.5601 183.38C96.6466 183.306 94.9419 183.437 94.8277 183.29C94.7135 183.143 96.2958 180.052 96.2958 180.052L96.304 180.036Z" fill="#EEA886"/>
<path d="M69.909 155.737C65.2842 154.921 60.4229 153.755 60.4229 153.755L51.8096 153.404C51.8096 153.404 43.9059 155.142 40.7983 156.553C40.5046 156.683 40.5046 163.6 39.689 165.419L42.2664 170.859C42.2664 170.859 43.7591 181.642 44.069 186.438C44.2077 188.641 43.6694 207.719 43.6694 207.719C43.6694 207.719 44.4442 208.102 50.3169 208.746C56.1897 209.391 70.8796 208.51 70.9693 207.817C71.059 207.123 68.1227 181.969 67.9922 180.672C67.7964 178.673 68.5713 169.432 68.5713 169.432C69.6806 170.916 72.5027 177.637 75.4473 180.835C77.1764 182.719 85.749 183.869 87.364 183.918C90.8794 184.032 97.2986 184.734 97.4862 184.391C97.6331 184.187 98.049 178.698 97.6412 178.559C97.2905 178.445 85.3738 177.76 82.3232 176.137C81.2058 175.541 77.8697 168.266 77.8697 168.266C77.8697 168.266 72.462 156.871 69.909 155.729V155.737Z" fill="#FFB555"/>
<path d="M38.4821 172.646H52.9355C55.8229 172.646 58.172 174.996 58.172 177.883V201.937C58.172 204.824 55.8229 207.173 52.9355 207.173H38.4821C35.5947 207.173 33.2456 204.824 33.2456 201.937V177.883C33.2456 174.996 35.5947 172.646 38.4821 172.646Z" fill="#E2D2CA"/>
<path d="M53.7591 215.183C50.0886 215.183 47.1033 213.951 44.9011 211.512C39.9174 206.015 40.8146 196.341 40.8554 195.933C40.9288 195.175 41.614 194.612 42.3725 194.693C43.1311 194.767 43.6939 195.444 43.6123 196.211C43.6042 196.317 42.8048 205.085 46.9565 209.661C48.6368 211.512 50.8635 212.409 53.7591 212.409C54.5258 212.409 55.1457 213.029 55.1457 213.796C55.1457 214.563 54.5258 215.183 53.7591 215.183Z" fill="#E2D2CA"/>
<path d="M78.7182 141.129H92.3722C92.5843 141.129 92.7637 141.3 92.7637 141.52V142.312C92.7637 142.524 92.5925 142.703 92.3722 142.703H78.7182C78.5061 142.703 78.3267 142.532 78.3267 142.312V141.52C78.3267 141.308 78.498 141.129 78.7182 141.129Z" fill="#DFE1E8"/>
<path d="M78.7182 144.506H92.3722C92.5843 144.506 92.7637 144.677 92.7637 144.897V145.689C92.7637 145.901 92.5925 146.08 92.3722 146.08H78.7182C78.5061 146.08 78.3267 145.909 78.3267 145.689V144.897C78.3267 144.685 78.498 144.506 78.7182 144.506Z" fill="#DFE1E8"/>
<path d="M79.6399 148.372H91.4505C92.1765 148.372 92.7637 148.959 92.7637 149.685V164.848C92.7637 165.574 92.1765 166.161 91.4505 166.161H79.6399C78.9139 166.161 78.3267 165.574 78.3267 164.848V149.685C78.3267 148.959 78.9139 148.372 79.6399 148.372Z" fill="#DFE1E8"/>
<path d="M97.7554 141.129H119.313C120.455 141.129 121.385 142.059 121.385 143.201V164.081C121.385 165.223 120.455 166.153 119.313 166.153H97.7554C96.6134 166.153 95.6836 165.223 95.6836 164.081V143.201C95.6836 142.059 96.6134 141.129 97.7554 141.129Z" fill="#DFE1E8"/>
<path d="M90.5777 19.0596H90.1128V67.4605H90.5777V19.0596Z" fill="#E0E0E0"/>
<path d="M123.375 19.0596H122.91V67.4605H123.375V19.0596Z" fill="#E0E0E0"/>
<path d="M156.172 19.0596H155.708V67.4605H156.172V19.0596Z" fill="#E0E0E0"/>
<path d="M188.97 19.0596H188.505V67.4605H188.97V19.0596Z" fill="#E0E0E0"/>
<path d="M221.768 19.0596H221.311V67.4605H221.768V19.0596Z" fill="#E0E0E0"/>
<path d="M95.561 70.3232H90.3408V72.0035H95.561V70.3232Z" fill="#B8B8B8"/>
<path d="M98.1956 13.0889H90.3408V14.3531H98.1956V13.0889Z" fill="#D9D9D9"/>
<path d="M101.483 15.4219H90.3408V16.678H101.483V15.4219Z" fill="#D9D9D9"/>
<path d="M132.013 13.0889H122.788V14.3531H132.013V13.0889Z" fill="#D9D9D9"/>
<path d="M128.685 15.4219H122.788V16.678H128.685V15.4219Z" fill="#D9D9D9"/>
<path d="M161.891 13.0889H156.173V14.3531H161.891V13.0889Z" fill="#D9D9D9"/>
<path d="M162.837 15.4219H156.173V16.678H162.837V15.4219Z" fill="#D9D9D9"/>
<path d="M197.298 13.0889H188.97V14.3531H197.298V13.0889Z" fill="#D9D9D9"/>
<path d="M195.634 15.4219H188.97V16.678H195.634V15.4219Z" fill="#D9D9D9"/>
<path d="M226.515 13.0889H221.539V14.3531H226.515V13.0889Z" fill="#D9D9D9"/>
<path d="M225.519 15.4219H221.539V16.678H225.519V15.4219Z" fill="#D9D9D9"/>
<path d="M128.359 70.3232H123.139V72.0035H128.359V70.3232Z" fill="#B8B8B8"/>
<path d="M161.393 70.3232H156.173V72.0035H161.393V70.3232Z" fill="#B8B8B8"/>
<path d="M194.19 70.3232H188.97V72.0035H194.19V70.3232Z" fill="#B8B8B8"/>
<path d="M226.988 70.3232H221.768V72.0035H226.988V70.3232Z" fill="#B8B8B8"/>
<path d="M210.169 53.0721C199.941 53.0721 191.042 48.6513 181.776 44.0428C170.332 38.3495 158.497 32.4687 142.722 34.0755C132.649 35.1032 126.336 39.206 120.757 42.8193C115.708 46.0983 110.936 48.9775 104.468 49.2222C94.0198 49.6219 90.3983 45.1603 90.333 44.8911V42.0281C90.3493 42.0771 92.625 47.077 104.452 47.0199C110.276 46.9873 114.574 44.1978 119.558 40.9678C125.341 37.2158 131.899 32.9581 142.494 31.8732C158.897 30.2011 171.018 36.2288 182.747 42.0608C195.014 48.1619 206.727 53.8878 221.531 48.9204V51.2695C217.314 52.6887 213.937 53.0639 210.161 53.0639L210.169 53.0721Z" fill="url(#paint9_linear_101_1072)"/>
<path d="M148.766 52.5263C141.213 52.5263 135.226 47.4447 129.362 42.4774C124.916 38.7091 120.3 34.851 114.982 32.9506C98.7339 27.1513 90.4224 37.7466 90.3408 37.8363V34.6145C90.4305 34.5085 91.915 32.5754 96.2054 30.7401C100.112 29.068 106.662 27.7304 115.708 30.8788C121.434 32.869 126.189 36.8983 130.789 40.8053C140.12 48.7172 148.179 55.5442 162.167 44.851C172.763 36.7434 182.754 29.0191 192.591 26.1969C202.208 23.44 212.232 25.4547 221.612 34.8429L221.547 37.7711C201.612 17.7468 184.639 30.4384 163.505 46.5965C157.91 50.8786 153.081 52.5344 148.766 52.5344V52.5263Z" fill="url(#paint10_linear_101_1072)"/>
<path d="M301.759 118.878H252.73C249.01 118.878 245.976 115.852 245.976 112.124V68.7312C245.976 65.0036 249.002 61.9775 252.73 61.9775H301.759C305.478 61.9775 308.512 65.0036 308.512 68.7312V112.124C308.512 115.852 305.486 118.878 301.759 118.878ZM252.73 62.8013C249.459 62.8013 246.8 65.4604 246.8 68.7312V112.124C246.8 115.395 249.459 118.054 252.73 118.054H301.759C305.029 118.054 307.688 115.395 307.688 112.124V68.7312C307.688 65.4604 305.029 62.8013 301.759 62.8013H252.73Z" fill="white"/>
<path d="M330.804 240.931C330.804 240.931 331.244 244.047 331.301 244.512C331.358 244.977 336.244 244.234 336.244 244.234L336.636 240.531C336.636 240.531 331.407 240.491 330.804 240.931Z" fill="#5C544D"/>
<path d="M331.252 244.121C331.252 244.121 329.703 245.997 328.21 246.813C326.709 247.628 324.36 247.954 323.479 248.803C322.843 249.414 321.155 252.041 327.37 251.992C333.585 251.935 336.587 252.367 337.256 251.356C337.924 250.344 336.293 243.917 336.293 243.917C336.293 243.917 334.825 244.447 331.269 244.129L331.252 244.121Z" fill="#3C4145"/>
<path d="M295.796 240.931C295.796 240.931 296.245 244.047 296.293 244.512C296.351 244.977 301.236 244.234 301.236 244.234L301.636 240.531C301.636 240.531 296.408 240.491 295.796 240.931Z" fill="#5C544D"/>
<path d="M296.244 244.121C296.244 244.121 294.695 245.997 293.202 246.813C291.709 247.629 286.195 248.306 285.315 249.146C284.678 249.757 283.618 252.213 292.362 251.984C298.577 251.821 301.579 252.359 302.239 251.348C302.908 250.337 301.277 243.909 301.277 243.909C301.277 243.909 299.89 244.48 296.252 244.121H296.244Z" fill="#3C4145"/>
<path d="M329.067 160.581C329.067 160.581 331.668 168.305 331.326 174.961C330.983 181.617 332.672 188.901 333.357 195.85C334.124 203.599 337.272 221.951 337.386 226.094C337.5 230.238 336.897 243.484 336.897 243.484L330.6 243.631C330.6 243.631 325.315 211.551 323.944 208.281C322.574 205.01 315.78 181.674 315.551 179.056C315.323 176.437 329.067 160.589 329.067 160.589V160.581Z" fill="#33373B"/>
<path d="M302.59 161.953C302.59 161.953 299.132 180.199 298.675 184.269C298.219 188.339 297.917 203.983 297.688 206.528C297.46 209.073 296.163 239.848 294.948 243.624H302.998C302.998 243.624 309.181 221.251 309.181 210.672C309.181 200.093 313.953 187.662 317.036 180.68C320.119 173.698 327.174 173.535 329.067 160.574C329.067 160.574 305.16 157.842 302.59 161.944V161.953Z" fill="#3C4145"/>
<path d="M318.952 99.6116C318.952 99.6116 312.606 97.2381 309.678 102.075C306.75 106.904 307.035 116.577 310.233 117.768C313.43 118.959 318.234 118.339 319.874 115.313C321.513 112.287 322.989 107.923 322.916 105.003C322.843 102.083 320.616 100.46 318.944 99.6198L318.952 99.6116Z" fill="#EEA886"/>
<path d="M311.302 117.466C311.302 117.466 311.563 119.13 311.13 119.946C310.706 120.762 319.116 120.786 319.116 120.786C319.116 120.786 319.793 116.333 321.089 112.564C322.386 108.796 311.302 117.466 311.302 117.466Z" fill="#EEA886"/>
<path d="M321.089 112.564C321.089 112.564 320.51 113.519 318.145 113.151C315.779 112.776 312.884 109.628 311.897 109.285C310.91 108.943 310.902 108.355 310.902 108.355L310.282 109.261L309.23 109.326C309.23 109.326 310.184 106.512 308.74 105.362C307.297 104.212 310.241 96.2348 317.835 98.8938C317.835 98.8938 323.667 100.501 323.455 103.82C323.243 107.14 322.394 110.917 321.089 112.572V112.564Z" fill="#FCCCA2"/>
<path d="M310.633 119.857C310.633 119.857 310.657 118.291 311.367 118.144C312.076 117.997 319.205 117.312 320.07 117.654V119.481C320.07 119.481 318.39 120.517 310.625 119.865L310.633 119.857Z" fill="#E2D2CA"/>
<path d="M311.057 107.156C311.187 106.602 312.607 105.011 313.145 106.716C313.683 108.421 312.329 110.705 311.571 110.509C310.812 110.313 310.723 108.568 311.057 107.156Z" fill="#EEA886"/>
<path d="M310.633 119.857C310.633 119.857 306.726 121.26 302.207 123.185C302.207 123.185 297.003 125.126 296.44 130.876C296.139 133.927 292.892 150.117 292.28 151.488C291.669 152.858 284.467 174.864 284.214 175.321C283.961 175.778 290.086 178.323 290.494 178.119C290.902 177.915 297.468 158.046 298.129 156.577C298.129 156.577 301.905 144.669 302.011 142.891C302.011 142.891 302.117 147.956 302.321 149.375C302.525 150.794 298.961 178.38 299.059 179.138C299.156 179.897 315.257 180.868 321.701 180.158C328.145 179.448 333.341 177.964 333.341 177.964C333.341 177.964 328.267 156.194 328.422 153.78C328.765 148.519 330.518 138.617 330.518 138.617L335.771 148.519L329.05 165.819L330.592 171.08C330.592 171.08 343.088 152.197 343.495 150.468C343.903 148.747 342.884 146.545 342.223 145.126C341.562 143.706 337.231 132.891 336.22 131.374C335.208 129.848 333.487 123.755 329.344 122.059C325.877 120.64 320.062 119.481 320.062 119.481L310.616 119.865L310.633 119.857Z" fill="#495054"/>
<path d="M307.318 164.735L277.879 157.188L272.614 177.722L302.053 185.27L307.318 164.735Z" fill="#D6D6D6"/>
<path d="M281.652 179.798C281.652 179.798 280.812 181.16 280.502 181.544C280.192 181.935 281.261 182.172 281.709 181.78C282.166 181.389 281.644 179.79 281.644 179.79L281.652 179.798Z" fill="#C98462"/>
<path d="M287.786 184.448C287.786 184.448 288.284 183.934 288.39 183.599C288.39 183.599 288.537 182.979 288.667 182.547C288.708 182.408 288.749 182.294 288.781 182.213C288.92 181.903 289.328 181.267 289.45 180.426C289.581 179.586 289.948 175.818 289.948 175.818L287.672 175.239L285.837 174.855C285.837 174.855 281.881 178.803 281.669 179.57C281.645 179.643 281.636 179.717 281.62 179.79C281.506 180.459 281.702 181.006 281.677 181.364C281.677 181.495 281.685 182.808 281.995 183.053C282.419 183.395 282.852 183.461 283.202 183.346C283.202 183.346 284.059 183.974 284.777 183.942C284.777 183.942 285.552 184.554 286.424 184.252C286.424 184.252 287.281 184.782 287.778 184.456L287.786 184.448Z" fill="#DE9D7D"/>
<path d="M296.685 160.622C296.685 160.622 291.457 176.446 290.503 178.11C290.503 178.11 286.669 177.302 284.222 175.312L289.956 158.232L296.685 160.622Z" fill="#495054"/>
</g>
<path d="M271.287 90.1392C271.269 91.4132 270.228 92.4434 268.95 92.4434C267.897 92.4434 267.006 91.7485 266.713 90.7914C266.676 90.6665 266.646 90.5384 266.63 90.4074C266.612 90.255 266.539 90.1117 266.423 90.0081C266.221 89.8191 265.889 89.56 265.605 89.56C265.565 89.56 265.529 89.56 265.489 89.5661C265.458 89.5692 265.428 89.5783 265.4 89.5936C265.303 89.6454 265.043 89.7825 264.882 89.8252C264.717 89.8709 264.546 89.8953 264.366 89.8953C264.061 89.8953 263.774 89.8252 263.518 89.7002C263.395 89.6423 263.283 89.5722 263.179 89.4899C263.112 89.4686 263.038 89.4595 262.965 89.4595C262.642 89.4595 262.364 89.6637 262.257 89.9502C262.257 89.9807 262.257 90.0111 262.257 90.0416C262.257 90.1544 262.245 90.2672 262.224 90.3739C262.169 90.6512 262.04 90.9042 261.867 91.1145C261.69 91.3248 261.464 91.4894 261.204 91.59C261.073 91.6418 260.93 91.6784 260.783 91.6967C260.713 91.7485 260.652 91.8186 260.612 91.8978C260.573 91.9771 260.548 92.0685 260.548 92.163C260.548 92.2575 260.573 92.355 260.618 92.4373C260.701 92.5044 260.777 92.5836 260.847 92.6659C261.07 92.9403 261.204 93.2908 261.204 93.6718C261.204 93.8973 261.159 94.1107 261.073 94.3057C260.991 94.4978 260.872 94.6685 260.722 94.8148C260.722 94.8361 260.719 94.8574 260.719 94.8788C260.719 95.15 260.887 95.3786 261.122 95.4731C261.22 95.4762 261.314 95.4914 261.406 95.5158C261.915 95.6529 262.303 96.0858 262.373 96.6161C262.379 96.674 262.385 96.7319 262.385 96.7898C262.385 96.8478 262.382 96.9087 262.373 96.9666C262.41 97.1007 262.492 97.2166 262.599 97.2989C262.706 97.3812 262.843 97.4299 262.99 97.4299C263.041 97.4299 263.09 97.4238 263.139 97.4116C263.188 97.3751 263.237 97.3385 263.289 97.308C263.341 97.2775 263.399 97.2501 263.453 97.2288C263.521 97.2013 263.594 97.18 263.667 97.1678C263.74 97.1526 263.817 97.1465 263.896 97.1465C264.314 97.1465 264.683 97.3598 264.9 97.6799C264.94 97.7378 264.976 97.8018 265.004 97.8688C265.095 97.9755 265.233 98.0426 265.385 98.0426C265.526 98.0426 265.651 97.9847 265.742 97.8932C265.852 97.4208 266.276 97.0642 266.783 97.0642C267.03 97.0642 267.256 97.1465 267.439 97.2897C267.637 97.4421 267.778 97.6646 267.83 97.9176C267.845 97.9877 267.851 98.0578 267.851 98.131C267.851 98.7192 267.372 99.1978 266.783 99.1978C266.426 99.1978 266.111 99.024 265.919 98.7558C265.87 98.7436 265.822 98.7345 265.773 98.7253C265.693 98.7131 265.614 98.707 265.532 98.707C265.397 98.707 265.263 98.7253 265.138 98.7558C265.071 98.7741 265.013 98.8198 264.982 98.8838C264.979 98.893 264.976 98.8991 264.97 98.9051C264.937 98.9692 264.897 99.0301 264.854 99.088C264.631 99.3745 264.287 99.5605 263.893 99.5605C263.414 99.5605 263.002 99.2831 262.803 98.8808C262.736 98.7466 262.697 98.5973 262.684 98.4418C262.602 98.2925 262.483 98.1675 262.337 98.0822C262.19 97.9938 262.022 97.945 261.839 97.945C261.778 97.945 261.717 97.9511 261.659 97.9633C261.613 97.9877 261.564 98.009 261.516 98.0273C261.467 98.0456 261.415 98.0609 261.363 98.073C261.265 98.0974 261.162 98.1096 261.055 98.1096C260.325 98.1096 259.733 97.5183 259.733 96.7898C259.733 96.738 259.733 96.6893 259.743 96.6375C259.764 96.4454 259.828 96.2656 259.923 96.1071C259.923 96.098 259.923 96.0858 259.923 96.0736C259.923 95.7292 259.743 95.4274 259.471 95.2567C259.373 95.2476 259.279 95.2323 259.187 95.2079C259.096 95.1836 259.007 95.15 258.922 95.1104C258.378 94.8544 258 94.3027 258 93.6626C258 93.1201 258.272 92.6416 258.687 92.352C258.793 92.2788 258.909 92.2148 259.035 92.1691C259.141 92.0807 259.23 91.971 259.288 91.843C259.349 91.718 259.382 91.5748 259.382 91.4254C259.382 91.3248 259.367 91.2273 259.34 91.1389C259.285 91.0749 259.233 91.0078 259.184 90.9347C259.138 90.8646 259.096 90.7884 259.062 90.7091C258.97 90.5019 258.919 90.2733 258.919 90.0325C258.919 89.112 259.666 88.3683 260.585 88.3683C260.643 88.3683 260.704 88.3713 260.759 88.3774C260.841 88.3866 260.924 88.4018 261.003 88.4201C261.082 88.4414 261.159 88.4658 261.232 88.4993C261.253 88.4993 261.275 88.4993 261.296 88.4993C261.796 88.4993 262.224 88.2037 262.419 87.777C262.425 87.6886 262.44 87.6032 262.459 87.5179C262.477 87.4326 262.501 87.3503 262.532 87.271C262.803 86.5273 263.518 86 264.357 86C265.132 86 265.8 86.4511 266.111 87.1064C266.173 87.2344 266.221 87.3746 266.255 87.5179C266.362 87.713 266.52 87.8745 266.71 87.9903C266.899 88.1031 267.122 88.1702 267.36 88.1702C267.473 88.1702 267.579 88.1549 267.683 88.1275C267.753 88.0818 267.827 88.0422 267.903 88.0056C267.979 87.969 268.055 87.9355 268.135 87.905C268.385 87.8135 268.654 87.7648 268.937 87.7648C270.24 87.7648 271.293 88.8316 271.278 90.1331L271.287 90.1392Z" fill="url(#paint11_linear_101_1072)"/>
<path d="M280.812 92.7969C279.267 92.7969 278.123 91.7027 278.123 90.0141C278.123 88.3256 279.219 87.2435 280.812 87.2435C282.405 87.2435 283.43 88.3073 283.43 89.8892C283.43 90.0751 283.421 90.2488 283.39 90.4348H279.277C279.356 91.3217 279.991 91.8612 280.812 91.8612C281.495 91.8612 281.877 91.529 282.081 91.1084H283.284C282.981 92.0441 282.13 92.7969 280.812 92.7969V92.7969ZM279.286 89.5387H282.267C282.249 88.7096 281.593 88.1823 280.763 88.1823C280.009 88.1823 279.405 88.6913 279.286 89.5387Z" fill="url(#paint12_linear_101_1072)"/>
<path d="M288.289 89.7886C288.289 88.8041 287.751 88.2951 286.94 88.2951C286.128 88.2951 285.582 88.8041 285.582 89.7886V92.7939H284.468V87.4173H285.582V88.0329C285.942 87.594 286.54 87.3289 287.184 87.3289C288.444 87.3289 289.393 88.1183 289.393 89.6209V92.7939H288.289V89.7886Z" fill="url(#paint13_linear_101_1072)"/>
<path d="M291.313 92.7969C290.913 92.7969 290.599 92.486 290.599 92.0836C290.599 91.6813 290.91 91.3704 291.313 91.3704C291.716 91.3704 292.018 91.6844 292.018 92.0836C292.018 92.4829 291.706 92.7969 291.313 92.7969Z" fill="#F1673A"/>
<path d="M295.457 92.7969C294.13 92.7969 293.107 92.0715 293.107 90.8981H294.273C294.322 91.4406 294.703 91.8795 295.457 91.8795C296.211 91.8795 296.65 91.468 296.65 90.9072C296.65 89.304 293.126 90.3433 293.126 87.9019C293.126 86.7376 294.053 86.0121 295.408 86.0121C296.678 86.0121 297.578 86.6797 297.673 87.8166H296.47C296.431 87.3685 296.04 86.957 295.353 86.9387C294.722 86.9204 294.237 87.2252 294.237 87.8653C294.237 89.3649 297.752 88.4292 297.752 90.8523C297.752 91.8429 296.94 92.8 295.46 92.8L295.457 92.7969Z" fill="url(#paint14_linear_101_1072)"/>
<path d="M277.275 86.8808V86.0121H274.458H272.801V86.9784V88.1122L273.695 86.9784H275.947L272.801 91.9283V92.7969H275.621H277.275V91.8307V90.6969L276.38 91.8307H274.119L277.275 86.8808Z" fill="url(#paint15_linear_101_1072)"/>
<path opacity="0.61" d="M280.766 98.3413C279.222 98.3413 278.078 97.247 278.078 95.5585C278.078 93.8699 279.173 92.7878 280.766 92.7878C282.359 92.7878 283.385 93.8516 283.385 95.4335C283.385 95.6194 283.375 95.7931 283.345 95.9791H279.231C279.311 96.866 279.945 97.4055 280.766 97.4055C281.45 97.4055 281.831 97.0733 282.036 96.6527H283.238C282.936 97.5884 282.085 98.3413 280.766 98.3413V98.3413ZM279.24 95.083H282.222C282.204 94.2539 281.547 93.7266 280.717 93.7266C279.964 93.7266 279.359 94.2356 279.24 95.083Z" fill="url(#paint16_linear_101_1072)"/>
<path opacity="0.61" d="M285.563 95.7962C285.563 96.7807 286.1 97.2897 286.912 97.2897C287.724 97.2897 288.27 96.7807 288.27 95.7962V92.7909H289.384V98.1675H288.27V97.5518C287.91 97.9908 287.312 98.2559 286.668 98.2559C285.408 98.2559 284.458 97.4665 284.458 95.9638V92.7909H285.563V95.7962Z" fill="url(#paint17_linear_101_1072)"/>
<path opacity="0.61" d="M292.005 93.5011C292.005 93.9004 291.694 94.2143 291.301 94.2143C290.907 94.2143 290.586 93.9004 290.586 93.5011C290.586 93.1018 290.898 92.7878 291.301 92.7878C291.703 92.7878 292.005 93.0987 292.005 93.5011Z" fill="url(#paint18_linear_101_1072)"/>
<path opacity="0.61" d="M295.387 92.7878C296.708 92.7878 297.724 93.5102 297.724 94.6776H296.565C296.516 94.135 296.137 93.6992 295.387 93.6992C294.627 93.6992 294.2 94.1076 294.2 94.6684C294.2 96.2625 297.706 95.2293 297.706 97.6585C297.706 98.8167 296.784 99.5361 295.436 99.5361C294.172 99.5361 293.278 98.8716 293.183 97.7438H294.38C294.416 98.1889 294.807 98.5973 295.49 98.6156C296.116 98.6339 296.601 98.3321 296.601 97.6951C296.601 96.2046 293.104 97.1343 293.104 94.7233C293.104 93.7358 293.913 92.7878 295.384 92.7878H295.387Z" fill="url(#paint19_linear_101_1072)"/>
<path opacity="0.61" d="M277.263 93.6565V92.7878H272.789V93.754V94.8635L273.662 93.754H275.935L272.789 98.704V99.5726H277.263V99.5604V98.6064V97.4604L276.36 98.6064H274.107L277.263 93.6565Z" fill="url(#paint20_linear_101_1072)"/>
<path d="M269.499 95.2506C269.796 95.2506 270.036 95.0104 270.036 94.7141C270.036 94.4179 269.796 94.1777 269.499 94.1777C269.202 94.1777 268.962 94.4179 268.962 94.7141C268.962 95.0104 269.202 95.2506 269.499 95.2506Z" fill="url(#paint21_linear_101_1072)"/>
<path d="M268.693 97.2653C269.138 97.2653 269.499 96.905 269.499 96.4606C269.499 96.0162 269.138 95.6559 268.693 95.6559C268.248 95.6559 267.888 96.0162 267.888 96.4606C267.888 96.905 268.248 97.2653 268.693 97.2653Z" fill="url(#paint22_linear_101_1072)"/>
<defs>
<linearGradient id="paint0_linear_101_1072" x1="178.872" y1="154.391" x2="59.5418" y2="154.391" gradientUnits="userSpaceOnUse">
<stop stop-color="#FFC05C"/>
<stop offset="1" stop-color="#FF3857"/>
</linearGradient>
<linearGradient id="paint1_linear_101_1072" x1="178.872" y1="160.908" x2="59.5418" y2="160.908" gradientUnits="userSpaceOnUse">
<stop stop-color="#FFC05C"/>
<stop offset="1" stop-color="#FF3857"/>
</linearGradient>
<linearGradient id="paint2_linear_101_1072" x1="178.872" y1="167.434" x2="59.5418" y2="167.434" gradientUnits="userSpaceOnUse">
<stop stop-color="#FFC05C"/>
<stop offset="1" stop-color="#FF3857"/>
</linearGradient>
<linearGradient id="paint3_linear_101_1072" x1="-0.000939515" y1="178.395" x2="43.3511" y2="178.395" gradientUnits="userSpaceOnUse">
<stop stop-color="#40D5E6"/>
<stop offset="1" stop-color="#5577FF"/>
</linearGradient>
<linearGradient id="paint4_linear_101_1072" x1="31.8012" y1="202.579" x2="71.0015" y2="202.579" gradientUnits="userSpaceOnUse">
<stop stop-color="#40D5E6"/>
<stop offset="1" stop-color="#5577FF"/>
</linearGradient>
<linearGradient id="paint5_linear_101_1072" x1="35.1533" y1="208.281" x2="64.574" y2="208.281" gradientUnits="userSpaceOnUse">
<stop stop-color="#40D5E6"/>
<stop offset="1" stop-color="#5577FF"/>
</linearGradient>
<linearGradient id="paint6_linear_101_1072" x1="24.5255" y1="184.602" x2="58.7911" y2="184.602" gradientUnits="userSpaceOnUse">
<stop stop-color="#40D5E6"/>
<stop offset="1" stop-color="#5577FF"/>
</linearGradient>
<linearGradient id="paint7_linear_101_1072" x1="16.6626" y1="233.762" x2="48.2855" y2="233.762" gradientUnits="userSpaceOnUse">
<stop stop-color="#FF9340"/>
<stop offset="1" stop-color="#FFCE45"/>
</linearGradient>
<linearGradient id="paint8_linear_101_1072" x1="16.6626" y1="233.762" x2="48.2855" y2="233.762" gradientUnits="userSpaceOnUse">
<stop stop-color="#C97332"/>
<stop offset="1" stop-color="#FFCE45"/>
</linearGradient>
<linearGradient id="paint9_linear_101_1072" x1="90.3412" y1="42.3381" x2="221.539" y2="42.3381" gradientUnits="userSpaceOnUse">
<stop stop-color="#FFC05C"/>
<stop offset="1" stop-color="#FF3857"/>
</linearGradient>
<linearGradient id="paint10_linear_101_1072" x1="90.3408" y1="38.7906" x2="221.604" y2="38.7906" gradientUnits="userSpaceOnUse">
<stop stop-color="#40D5E6"/>
<stop offset="1" stop-color="#5577FF"/>
</linearGradient>
<linearGradient id="paint11_linear_101_1072" x1="264.744" y1="83.9609" x2="264.458" y2="107.22" gradientUnits="userSpaceOnUse">
<stop offset="0.15" stop-color="#48A4CB"/>
<stop offset="0.96" stop-color="#006F96"/>
</linearGradient>
<linearGradient id="paint12_linear_101_1072" x1="280.824" y1="85.2441" x2="280.745" y2="93.5346" gradientUnits="userSpaceOnUse">
<stop stop-color="#48A4CB"/>
<stop offset="1" stop-color="#006F96"/>
</linearGradient>
<linearGradient id="paint13_linear_101_1072" x1="286.931" y1="85.2806" x2="286.931" y2="92.9829" gradientUnits="userSpaceOnUse">
<stop stop-color="#48A4CB"/>
<stop offset="1" stop-color="#006F96"/>
</linearGradient>
<linearGradient id="paint14_linear_101_1072" x1="295.466" y1="84.7503" x2="295.415" y2="93.1505" gradientUnits="userSpaceOnUse">
<stop stop-color="#48A4CB"/>
<stop offset="1" stop-color="#006F96"/>
</linearGradient>
<linearGradient id="paint15_linear_101_1072" x1="275.074" y1="85.6738" x2="275.004" y2="92.9372" gradientUnits="userSpaceOnUse">
<stop stop-color="#48A4CB"/>
<stop offset="1" stop-color="#006F96"/>
</linearGradient>
<linearGradient id="paint16_linear_101_1072" x1="280.733" y1="98.3443" x2="280.733" y2="92.7909" gradientUnits="userSpaceOnUse">
<stop stop-color="#48A4CB" stop-opacity="0"/>
<stop offset="1" stop-color="#006F96" stop-opacity="0.8"/>
</linearGradient>
<linearGradient id="paint17_linear_101_1072" x1="286.921" y1="98.2529" x2="286.921" y2="92.7878" gradientUnits="userSpaceOnUse">
<stop stop-color="#48A4CB" stop-opacity="0"/>
<stop offset="1" stop-color="#006F96" stop-opacity="0.8"/>
</linearGradient>
<linearGradient id="paint18_linear_101_1072" x1="291.297" y1="94.2143" x2="291.297" y2="92.7878" gradientUnits="userSpaceOnUse">
<stop stop-color="#48A4CB" stop-opacity="0"/>
<stop offset="1" stop-color="#006F96" stop-opacity="0.8"/>
</linearGradient>
<linearGradient id="paint19_linear_101_1072" x1="295.414" y1="99.5361" x2="295.414" y2="92.7878" gradientUnits="userSpaceOnUse">
<stop stop-color="#48A4CB" stop-opacity="0"/>
<stop offset="1" stop-color="#006F96" stop-opacity="0.8"/>
</linearGradient>
<linearGradient id="paint20_linear_101_1072" x1="275.014" y1="99.1063" x2="275.056" y2="89.4442" gradientUnits="userSpaceOnUse">
<stop stop-color="#48A4CB" stop-opacity="0"/>
<stop offset="1" stop-color="#006F96" stop-opacity="0.8"/>
</linearGradient>
<linearGradient id="paint21_linear_101_1072" x1="268.962" y1="94.7141" x2="270.039" y2="94.7141" gradientUnits="userSpaceOnUse">
<stop stop-color="#48A4CB"/>
<stop offset="1" stop-color="#006F96"/>
</linearGradient>
<linearGradient id="paint22_linear_101_1072" x1="267.888" y1="96.4606" x2="269.499" y2="96.4606" gradientUnits="userSpaceOnUse">
<stop stop-color="#48A4CB"/>
<stop offset="1" stop-color="#006F96"/>
</linearGradient>
<clipPath id="clip0_101_1072">
<rect width="344" height="253" fill="white"/>
</clipPath>
</defs>
</svg>
